<?xml version="1.0" standalone="no"?><!DOCTYPE svg PUBLIC "-//W3C//DTD SVG 1.1//EN" "http://www.w3.org/Graphics/SVG/1.1/DTD/svg11.dtd"><svg t="1757150043166" class="icon" viewBox="0 0 1024 1024" version="1.1" xmlns="http://www.w3.org/2000/svg" p-id="22874" width="256" height="256" xmlns:xlink="http://www.w3.org/1999/xlink"><path d="M947.669333 552.426667a448 448 0 1 0-872.213333-3.754667c5.290667 22.933333 29.653333 34.986667 51.968 27.52 22.336-7.424 34.133333-31.530667 29.376-54.592A364.266667 364.266667 0 0 1 149.333333 448c0-200.298667 162.368-362.666667 362.666667-362.666667s362.666667 162.368 362.666667 362.666667a364.16 364.16 0 0 1-8.106667 76.650667c-4.949333 22.997333 6.634667 47.210667 28.906667 54.848 22.250667 7.637333 46.72-4.202667 52.202666-27.093334z" fill="#3ca643" p-id="22875"></path><path d="M461.653333 447.146667L671.530667 234.666667 567.253333 514.56a64.064 64.064 0 1 1-105.6-67.413333zM189.269333 712.832c3.754667 4.373333 7.829333 7.68 12.202667 9.856l53.504-21.12v204.629333c0 10.325333 2.496 17.514667 7.509333 21.589334 5.333333 4.053333 13.610667 6.101333 24.874667 6.101333 5.632 0 10.794667-0.469333 15.488-1.408 5.013333-0.938667 8.917333-1.706667 11.733333-2.346667V673.877333c0-10.026667-2.986667-17.834667-8.917333-23.466666-5.952-5.952-13.930667-8.917333-23.936-8.917334h-13.141333l-59.136 22.997334c-17.216 6.570667-25.813333 16.746667-25.813334 30.506666 0 7.509333 1.877333 13.44 5.632 17.834667zM377.024 875.221333c-6.250667 6.890667-9.386667 15.488-9.386667 25.813334 0 10.026667 3.136 18.624 9.386667 25.813333 6.570667 6.890667 15.488 10.325333 26.752 10.325333 10.965333 0 19.562667-3.434667 25.813333-10.325333 6.570667-7.189333 9.856-15.786667 9.856-25.813333 0-10.325333-3.285333-18.922667-9.856-25.813334-6.250667-7.189333-14.848-10.794667-25.813333-10.794666-11.264 0-20.181333 3.605333-26.752 10.794666zM495.018667 677.632c0.64-10.026667 3.754667-17.984 9.386666-23.936 5.632-5.952 13.44-8.917333 23.466667-8.917333h139.392c1.557333 2.496 2.986667 5.781333 4.224 9.856 1.557333 4.053333 2.346667 8.597333 2.346667 13.610666 0 8.128-2.048 14.4-6.101334 18.773334-3.754667 4.373333-8.917333 6.570667-15.488 6.570666h-104.661333l-5.632 63.36c5.632-2.197333 12.373333-4.224 20.181333-6.101333a115.093333 115.093333 0 0 1 26.752-2.816c15.018667 0 28.458667 2.197333 40.362667 6.570667a85.674667 85.674667 0 0 1 30.976 18.773333c8.448 8.128 14.848 17.984 19.242667 29.568 4.693333 11.264 7.04 23.786667 7.04 37.546667a101.333333 101.333333 0 0 1-7.04 37.546666c-4.693333 11.584-11.733333 21.76-21.12 30.506667-9.088 8.746667-20.650667 15.786667-34.730667 21.12-14.08 5.013333-30.506667 7.509333-49.28 7.509333-14.08 0-26.922667-1.258667-38.485333-3.754666a113.621333 113.621333 0 0 1-29.098667-9.386667c-8.149333-4.053333-14.4-8.746667-18.773333-14.08a29.205333 29.205333 0 0 1-6.570667-18.304c0-6.890667 2.026667-12.672 6.101333-17.365333 4.053333-5.013333 8.597333-8.746667 13.610667-11.264 7.808 6.250667 17.194667 12.202667 28.16 17.834666 11.264 5.632 25.344 8.448 42.24 8.448 17.834667 0 31.274667-4.544 40.362667-13.610666 9.386667-9.386667 14.08-21.12 14.08-35.2 0-14.08-4.544-25.173333-13.610667-33.322667-8.746667-8.128-21.44-12.202667-38.016-12.202667-9.706667 0-18.304 1.408-25.813333 4.224a131.925333 131.925333 0 0 0-21.589334 9.856c-11.904-0.64-21.44-3.904-28.629333-9.856-7.210667-6.250667-10.794667-15.338667-10.794667-27.221333v-5.162667c0.298667-2.197333 0.64-5.162667 0.938667-8.917333l6.570667-80.256zM739.264 766.677333a23.146667 23.146667 0 1 1 36.970667-27.861333l41.898666 55.573333 41.877334-55.573333a23.146667 23.146667 0 1 1 36.970666 27.861333l-49.877333 66.176 49.877333 66.133334a23.146667 23.146667 0 0 1-36.970666 27.882666l-41.877334-55.573333-41.898666 55.573333a23.146667 23.146667 0 1 1-36.949334-27.861333l49.856-66.154667-49.877333-66.176z" fill="#3ca643" p-id="22876"></path></svg>